<?xml version="1.0" encoding="UTF-8" standalone="no"?>
<!-- Created with Inkscape (http://www.inkscape.org/) -->

<svg
   width="260.9227mm"
   height="100.94355mm"
   viewBox="0 0 260.9227 100.94355"
   version="1.1"
   id="svg1"
   xmlns="http://www.w3.org/2000/svg"
   xmlns:svg="http://www.w3.org/2000/svg">
  <defs
     id="defs1" />
  <g
     id="layer1"
     transform="translate(0.72883435)">
    <rect
       style="fill:#5223b2;fill-opacity:1;stroke-width:1.865;stroke-linejoin:bevel"
       id="rect1"
       width="260"
       height="100"
       x="0"
       y="0"
       rx="21.500584"
       ry="19.31411" />
  </g>
  <g
     id="layer2"
     transform="translate(0.72883435)">
    <path
       style="fill:#5223b2;fill-opacity:1;stroke-width:1.865;stroke-linejoin:bevel"
       d="m 0.53888351,14.980451 0.91878519,11.622003 1.4576687,9.839264 4.7374232,17.856441 8.3815954,23.3227 11.296933,8.381593 203.344781,-0.364416 12.02577,-2.55092 9.83926,-9.110429 4.73743,-35.712884 1.82208,-24.051533 1.09325,3.644172 v 34.255213 32.068712 l -2.1865,5.101841 -4.00859,4.737423 -4.73742,4.008588 -4.37301,1.093253 -4.373,1.457668 L 18.220859,99.850307 13.119018,98.028219 8.0171778,95.4773 3.2797546,90.375458 -0.36441718,82.722698 Z"
       id="path1" />
  </g>
  <path
     style="fill:#4a20a3;fill-opacity:1;stroke-width:1.865;stroke-linejoin:bevel"
     d="m 1.4576687,15.669938 1.0932515,23.3227 2.1865029,30.611042 5.4662579,17.856441 17.127607,6.55951 213.184042,-0.364416 10.20368,-4.737426 5.46626,-7.288342 2.55092,-28.424539 1.82208,-37.170552 0.36442,65.959507 -0.72883,5.101842 -4.00859,5.830675 -5.83068,5.101839 -9.11042,2.915341 L 18.585276,100.21472 12.754601,98.028219 6.9239262,94.384047 3.2797545,89.646624 0,83.451532 Z"
     id="path2" />
</svg>
