<?xml version="1.0" encoding="UTF-8" standalone="no"?>
<!-- Created with Inkscape (http://www.inkscape.org/) -->

<svg
   width="32mm"
   height="32mm"
   viewBox="0 0 32 32"
   version="1.1"
   id="svg1"
   xmlns="http://www.w3.org/2000/svg"
   xmlns:svg="http://www.w3.org/2000/svg">
  <defs
     id="defs1" />
  <g
     id="layer1">
    <circle
       style="fill:#4400aa;stroke-width:0.343227"
       id="path1"
       cx="15.966026"
       cy="15.966026"
       r="13.916181" />
  </g>
  <g
     id="layer2">
    <ellipse
       style="fill:#cab6e7;fill-opacity:1;stroke-width:0.264583"
       id="path2"
       cx="8.8633127"
       cy="21.031338"
       rx="0.84271473"
       ry="1.3893404"
       transform="rotate(-51.100308)" />
  </g>
  <path
     style="fill:#2d0087;fill-opacity:1;stroke-width:0.264583"
     d="M 5.771779,6.4785276 5.57546,8.9128834 5.4969325,11.543558 c 0,0 0.157055,1.609816 0.157055,1.845399 0,0.235583 0.2355829,2.041718 0.2748468,2.395092 0.039264,0.353374 0.392638,2.041718 0.5104294,2.316564 0.1177915,0.274847 0.6674848,1.806135 0.8245398,2.198773 0.1570554,0.392638 2.6699387,3.337423 2.6699387,3.337423 l 1.8061348,0.903068 c 0,0 3.10184,1.099386 3.376687,1.13865 0.274847,0.03926 3.494479,0.353374 4.161963,0.274847 0.667485,-0.07853 5.300614,-0.942331 5.536197,-1.060123 0.235583,-0.117791 3.180367,-2.041717 3.180367,-2.041717 l -0.510429,0.942331 -1.020857,1.334969 -1.295707,1.295706 -1.452761,1.138651 -1.413497,0.824539 -1.256441,0.549693 -1.413497,0.471165 -1.531289,0.314111 -1.609816,0.157056 L 14.76319,29.840491 13.310429,29.64417 11.97546,29.330062 10.561963,28.819631 9.2269939,28.152148 7.6171779,27.131287 6.2429447,25.953374 5.182822,24.77546 4.1226993,23.283435 3.2588956,21.673619 2.6699387,19.985276 2.2380368,18.179141 2.002454,16.215951 2.2380368,13.62454 2.7092023,11.66135 3.4944785,9.7374233 4.6723926,7.7742329 Z"
     id="path4" />
</svg>
